<?xml version="1.0" encoding="UTF-8"?>
<svg version="1.1" xmlns="http://www.w3.org/2000/svg" width="512" height="512">
<path d="M0 0 C1.15375592 -0.00623996 2.30751184 -0.01247993 3.49623007 -0.01890898 C7.34148353 -0.03479511 11.18609925 -0.02225116 15.03135681 -0.00964355 C17.79653217 -0.0128672 20.56168091 -0.02204616 23.32684326 -0.03088379 C30.04493143 -0.04862518 36.76284035 -0.04484884 43.4809354 -0.03323323 C48.9425912 -0.02418261 54.40419693 -0.02298192 59.86585808 -0.02732849 C60.64455654 -0.02794142 61.42325501 -0.02855436 62.22555039 -0.02918586 C63.80767749 -0.03046482 65.38980457 -0.03176167 66.97193163 -0.03307623 C81.79030641 -0.04446899 96.60858204 -0.03138843 111.42694055 -0.00987476 C124.13106642 0.00799858 136.83504608 0.00488767 149.53916931 -0.0135498 C164.30774399 -0.03497351 179.07623191 -0.04337418 193.84481996 -0.03110075 C195.42067014 -0.02982661 196.99652033 -0.02856912 198.57237053 -0.02732849 C199.34763334 -0.02671139 200.12289615 -0.02609429 200.92165177 -0.02545848 C206.37480187 -0.02201034 211.82789674 -0.02782227 217.28103828 -0.0372467 C223.92933135 -0.04848462 230.57743559 -0.045389 237.22570712 -0.02412373 C240.61534135 -0.01363755 244.00440172 -0.01161558 247.39407349 -0.02272034 C251.07349403 -0.03366245 254.75203205 -0.01992638 258.43139648 0 C259.49560713 -0.00892289 260.55981778 -0.01784577 261.65627724 -0.02703905 C272.55056263 0.08727702 280.16343961 4.30035714 288.15220642 11.50793457 C289.96409855 13.39434175 291.66269627 15.3329884 293.33970642 17.33996582 C295.38480652 19.78615236 297.51070592 22.1457727 299.65220642 24.50793457 C302.91365768 28.12197515 306.13579797 31.76582811 309.33189392 35.43762207 C312.16676011 38.66182611 315.05492061 41.83763792 317.94126892 45.01574707 C320.15220642 47.50793457 320.15220642 47.50793457 321.86582947 50.63146973 C323.8850555 53.03113965 324.98406758 53.4789055 328.12266541 54.02078247 C332.07234145 54.17107839 335.99637771 54.12881633 339.94517517 54.02355957 C341.41619973 54.0072653 342.88725998 53.99394675 344.3583374 53.98345947 C348.23001077 53.94926491 352.1002775 53.88084504 355.97129822 53.80334473 C362.14769739 53.68492289 368.32477847 53.61662647 374.50193214 53.55181122 C376.64574478 53.52419629 378.78878796 53.48094966 380.93228149 53.4352417 C392.75219087 53.23194224 402.59378972 54.02958783 412.15220642 61.50793457 C418.13968015 67.72230204 421.52483907 74.68689672 421.53252316 83.34285069 C421.53718307 83.99675711 421.54184299 84.65066354 421.54664412 85.32438532 C421.55855786 87.50699662 421.54921317 89.68898122 421.53988647 91.87159729 C421.54406103 93.45571296 421.54953922 95.03982564 421.55620629 96.62393278 C421.57066449 100.97075434 421.56641494 105.31738635 421.55903947 109.66421831 C421.55431082 114.35494987 421.56681523 119.04564026 421.57705688 123.73635864 C421.59425836 132.92500799 421.59508179 142.113589 421.58984398 151.30225027 C421.5858022 158.77384343 421.58724595 166.2454164 421.59259224 173.71700859 C421.59334066 174.78053212 421.59408908 175.84405565 421.59486018 176.93980716 C421.59639168 179.10044119 421.59793003 181.26107521 421.59947515 183.42170923 C421.61320602 203.68869952 421.60775923 223.95565122 421.59628994 244.22264063 C421.58636531 262.74907424 421.59928387 281.27540788 421.62322413 299.80182607 C421.64763184 318.83379453 421.65721837 337.86571646 421.65057141 356.89770025 C421.64708183 367.57890983 421.64929356 378.26004259 421.66682243 388.94124031 C421.68156565 398.03783042 421.68215257 407.13428968 421.66475152 416.23087729 C421.65625506 420.86857751 421.65405858 425.5060442 421.66940308 430.14373207 C421.68330151 434.39722642 421.67842126 438.65028832 421.65916384 442.90375798 C421.65541912 444.43474206 421.65828127 445.9657612 421.66877549 447.49671388 C421.78862506 466.33492108 416.45772981 481.56116245 403.39439392 495.32824707 C389.18282106 509.14367853 372.54005856 512.97307915 353.35842896 512.89561462 C351.66774131 512.89979291 349.97705646 512.90527314 348.28637677 512.91193444 C343.66355654 512.92634294 339.04091529 512.92215872 334.41808546 512.91476762 C329.42340079 512.91002682 324.42875434 512.92255391 319.43408203 512.93278503 C309.65776395 512.94996085 299.88151019 512.95081551 290.10518094 512.94557213 C282.15647176 512.9415267 274.20778154 512.94297842 266.25907326 512.94832039 C264.56052486 512.94944302 264.56052486 512.94944302 262.82766235 512.95058833 C260.52706946 512.95211985 258.22647657 512.9536582 255.92588369 512.9552033 C234.36220443 512.9689241 212.79856147 512.96349374 191.23488305 512.95201809 C171.52209847 512.94208758 151.80940778 512.95502401 132.09663769 512.97895228 C111.83960978 513.0033553 91.58262559 513.0129481 71.32558328 513.00629956 C59.95920698 513.00280983 48.59290287 513.00502306 37.2265377 513.02255058 C27.54997205 513.03728763 17.87352941 513.03788837 8.19696613 513.02047967 C3.2635541 513.01197948 -1.66963833 513.00979616 -6.60303879 513.02513123 C-11.1265263 513.03901758 -15.6496069 513.03416465 -20.17307111 513.01489199 C-21.80218537 513.01114373 -23.43133255 513.01401979 -25.06041739 513.02450364 C-44.13034106 513.13841912 -59.57679852 508.1211072 -73.66810608 494.75012207 C-85.63072599 482.44448797 -91.33675595 467.03711717 -91.23547363 450.02236938 C-91.24085917 448.91958393 -91.24624471 447.81679847 -91.25179344 446.68059528 C-91.26601295 443.01371339 -91.25898398 439.34719557 -91.25184631 435.68029785 C-91.25755303 433.0396919 -91.26441867 430.3991114 -91.27264404 427.7585144 C-91.2897808 421.34739746 -91.29068273 414.93637874 -91.28543114 408.52524485 C-91.28137853 403.3106011 -91.2828459 398.09598623 -91.2881794 392.88134384 C-91.28892782 392.13724009 -91.28967624 391.39313635 -91.29044734 390.626484 C-91.29197893 389.11450537 -91.29351728 387.60252675 -91.29506231 386.09054814 C-91.30876887 371.93304103 -91.30336271 357.77558929 -91.2918771 343.61808346 C-91.28194719 330.68799062 -91.29488445 317.75804093 -91.31881129 304.82797016 C-91.34323907 291.52616831 -91.3528011 278.22443303 -91.34615856 264.92260921 C-91.34267443 257.46473265 -91.34484488 250.00696611 -91.36240959 242.5491066 C-91.37717773 236.20032862 -91.37770719 229.85173816 -91.36033868 223.50296368 C-91.3518638 220.2688156 -91.35178602 217.03506828 -91.36499023 213.80092621 C-91.44525551 192.50894204 -89.00771784 174.80410562 -73.84779358 158.50793457 C-70.65989061 155.62264759 -67.33138495 153.02539521 -63.84779358 150.50793457 C-63.18908264 150.02324707 -62.5303717 149.53855957 -61.85169983 149.03918457 C-54.97117423 144.34726691 -46.95534073 142.07917124 -38.84779358 140.50793457 C-38.84448343 139.9614712 -38.84117329 139.41500784 -38.83776283 138.85198498 C-38.75629522 125.51240609 -38.66400514 112.17293912 -38.56026649 98.83351421 C-38.51042053 92.38248005 -38.46408964 85.93146133 -38.42591858 79.48034668 C-38.38891779 73.24922894 -38.34251815 67.01824427 -38.28973007 60.78724098 C-38.27126454 58.41555947 -38.25612798 56.04384951 -38.24444962 53.67212486 C-38.22745248 50.3382048 -38.19838573 47.00458431 -38.16664124 43.67077637 C-38.16448105 42.70044464 -38.16232086 41.73011292 -38.16009521 40.7303772 C-38.01438392 28.671831 -36.24505264 18.67396296 -28.02748108 9.46887207 C-19.87697607 1.71434301 -10.94301446 -0.09194456 0 0 Z M-17.16029358 24.13293457 C-19.48612085 27.4063211 -19.97247565 29.04216426 -19.9680481 33.00039673 C-19.96942276 33.94553131 -19.97079742 34.89066589 -19.97221375 35.86444092 C-19.96861847 36.90453308 -19.96502319 37.94462524 -19.96131897 39.01623535 C-19.961465 40.10892731 -19.96161102 41.20161926 -19.96176147 42.3274231 C-19.96106271 45.95271769 -19.953272 49.57796141 -19.94544983 53.20324707 C-19.94358552 55.71145601 -19.94216168 58.21966532 -19.94116211 60.72787476 C-19.93772919 66.66353256 -19.92984122 72.59917394 -19.91981262 78.5348233 C-19.90559011 87.13910103 -19.9003393 95.74338498 -19.89400482 104.34767151 C-19.88429673 116.40110774 -19.86513943 128.454496 -19.84779358 140.50793457 C-0.70779358 140.50793457 18.43220642 140.50793457 38.15220642 140.50793457 C38.81220642 134.56793457 39.47220642 128.62793457 40.15220642 122.50793457 C44.88360864 103.40708857 55.09469001 86.86747333 72.15220642 76.50793457 C82.54848646 70.62145637 93.09545208 66.23797658 105.15220642 65.50793457 C106.00943298 65.45508301 106.86665955 65.40223145 107.74986267 65.34777832 C129.14359995 64.68552266 148.29565217 72.54340907 163.87095642 87.13293457 C176.22609665 99.99582029 182.42472188 116.72495667 183.69981384 134.27966309 C183.78575302 135.44699478 183.8716922 136.61432648 183.9602356 137.81703186 C184.02358597 138.70502975 184.08693634 139.59302765 184.15220642 140.50793457 C185.09386658 140.50935959 186.03552673 140.51078461 187.00572205 140.51225281 C195.9483845 140.52903639 204.89059851 140.57215224 213.83302307 140.64002514 C218.42873966 140.67408799 223.02413114 140.69937251 227.61997986 140.70349121 C232.06829796 140.70781912 236.51588525 140.73664702 240.963974 140.78136635 C242.64768694 140.79419962 244.331488 140.79870032 246.01524353 140.79408836 C265.43228737 140.7533509 281.37733918 145.54555901 295.83189392 159.09387207 C312.53823137 176.47521306 313.60374032 197.94336913 313.58457947 220.70324707 C313.59361458 222.89277696 313.60394603 225.08230183 313.61546326 227.27182007 C313.64285395 233.16739244 313.65229324 239.06286838 313.65831733 244.95849609 C313.667748 251.13777428 313.69395495 257.31698174 313.71832275 263.49621582 C313.76186291 275.17585484 313.7904864 286.85548004 313.81364614 298.53517532 C313.84076497 311.84126339 313.88467219 325.14726758 313.92993486 338.45330429 C314.02260224 365.80481034 314.09376926 393.1563358 314.15220642 420.50793457 C326.03220642 420.50793457 337.91220642 420.50793457 350.15220642 420.50793457 C350.15220642 319.52793457 350.15220642 218.54793457 350.15220642 114.50793457 C320.45220642 114.01293457 320.45220642 114.01293457 290.15220642 113.50793457 C280.06503828 111.26634165 280.06503828 111.26634165 277.21470642 108.88293457 C274.53471715 106.30366006 274.53471715 106.30366006 272.15220642 106.50793457 C271.72101501 105.63781738 271.72101501 105.63781738 271.28111267 104.75012207 C270.57661679 103.35088111 269.8576007 101.95874504 269.11705017 100.57824707 C268.77802673 99.93629395 268.4390033 99.29434082 268.08970642 98.63293457 C267.57730408 97.67773926 267.57730408 97.67773926 267.05455017 96.70324707 C265.02740306 91.77139998 265.01248219 86.57578904 264.94688416 81.3092041 C264.93698456 80.61582443 264.92708496 79.92244476 264.91688538 79.20805359 C264.88551316 76.9356518 264.86060995 74.66322916 264.83580017 72.39074707 C264.81520962 70.80747969 264.79421262 69.22421754 264.77282715 67.64096069 C264.71782333 63.48836528 264.66831907 59.33572206 264.61997986 55.18304443 C264.56960574 50.93973573 264.514003 46.69649584 264.45884705 42.45324707 C264.35153106 34.13820122 264.25002793 25.82309752 264.15220642 17.50793457 C229.47577286 17.41639635 194.79936687 17.34590467 160.12283861 17.30367325 C156.0297631 17.29867037 151.93668783 17.29349309 147.84361267 17.28820801 C147.0287487 17.28715877 146.21388473 17.28610952 145.37432791 17.28502849 C132.17693056 17.26761915 118.97960284 17.23607856 105.78224681 17.19932339 C92.2424136 17.16192866 78.70261688 17.13970183 65.16273415 17.13158059 C56.80662026 17.12608976 48.45070318 17.10874216 40.09464987 17.0762687 C34.36603189 17.05513892 28.6375158 17.04873102 22.90886168 17.05392906 C19.60272931 17.05649329 16.29701406 17.05035833 12.99092674 17.03111267 C9.4062979 17.01126513 5.82251698 17.01597727 2.23786926 17.0269165 C0.67074151 17.00943946 0.67074151 17.00943946 -0.92804539 16.99160933 C-8.486746 17.05412686 -12.07089077 18.35577462 -17.16029358 24.13293457 Z M281.15220642 31.50793457 C281.07599733 39.21254118 281.0235395 46.91705017 280.9874115 54.62194824 C280.97234663 57.24177686 280.95189088 59.86158035 280.92588806 62.48132324 C280.8894048 66.25197562 280.87245654 70.02229383 280.85923767 73.79309082 C280.84375381 74.96001968 280.82826996 76.12694855 280.81231689 77.32923889 C280.81104517 83.50630776 281.08225958 88.08853384 284.15220642 93.50793457 C287.46703389 96.82276204 290.95140324 97.39699419 295.53778076 97.62818909 C296.36162766 97.62596848 297.18547455 97.62374786 298.0342865 97.62145996 C299.44518303 97.62134666 299.44518303 97.62134666 300.88458252 97.62123108 C301.88684372 97.61606979 302.88910492 97.61090851 303.92173767 97.60559082 C304.95787704 97.60417587 305.99401642 97.60276093 307.06155396 97.6013031 C310.36263446 97.59571699 313.66364651 97.58316699 316.96470642 97.57043457 C319.2062419 97.56541778 321.44777844 97.56085518 323.6893158 97.5567627 C329.17696926 97.5457521 334.66458295 97.52902775 340.15220642 97.50793457 C339.19736246 96.22027514 338.24051525 94.93410101 337.28282166 93.64855957 C336.75019211 92.93216309 336.21756256 92.2157666 335.66879272 91.47766113 C333.9957484 89.30472852 332.20509395 87.39312191 330.21470642 85.50793457 C326.96783237 82.34715187 323.95496571 79.0737825 320.99986267 75.64074707 C318.91504092 73.23416636 316.7869911 70.87028512 314.65220642 68.50793457 C311.38829794 64.89117112 308.16429693 61.24403849 304.96470642 57.57043457 C302.88009478 55.19829028 300.76791998 52.85237392 298.65220642 50.50793457 C293.76460622 45.08835068 288.89776498 39.65821761 284.27720642 34.00793457 C283.22533142 32.77043457 283.22533142 32.77043457 282.15220642 31.50793457 C281.82220642 31.50793457 281.49220642 31.50793457 281.15220642 31.50793457 Z M341.15220642 71.50793457 C343.31132656 74.8362628 345.40249104 77.99640266 348.17564392 80.83996582 C348.71922546 81.40650879 349.26280701 81.97305176 349.82286072 82.5567627 C350.3852948 83.13877441 350.94772888 83.72078613 351.52720642 84.32043457 C364.11847773 97.63235935 367.3091944 108.19060628 367.28591919 126.31265259 C367.28818475 127.60550828 367.2904503 128.89836397 367.29278451 130.23039711 C367.29888675 133.80783235 367.29877079 137.38524418 367.29759014 140.96268344 C367.29738574 144.8249998 367.30290844 148.68730871 367.30764771 152.54962158 C367.31594513 160.1109491 367.3187021 167.67226882 367.31926008 175.23360051 C367.31973548 181.37803374 367.3217914 187.5224644 367.32496071 193.66689682 C367.33376321 211.08687174 367.33838048 228.50684051 367.33763023 245.92681767 C367.33759028 246.86543683 367.33755032 247.804056 367.33750916 248.77111816 C367.33746827 249.71088237 367.33742739 250.65064657 367.33738527 251.61888848 C367.33697846 266.86314561 367.34655795 282.10737809 367.36064752 297.35162808 C367.37499999 313.00367735 367.38191839 328.65571459 367.38105375 344.30777061 C367.38072148 353.09563417 367.38348158 361.88347186 367.3942318 370.6713295 C367.40332173 378.1497892 367.40552433 385.62821127 367.39872237 393.10667409 C367.39545011 396.92297067 367.39542596 400.739195 367.40407562 404.55548477 C367.41334916 408.68943957 367.40718345 412.82322595 367.39944458 416.95718384 C367.40458814 418.16738445 367.40973171 419.37758507 367.41503114 420.62445843 C367.40813294 422.28404546 367.40813294 422.28404546 367.40109539 423.9771595 C367.40131276 424.93139938 367.40153013 425.88563927 367.40175408 426.86879551 C367.12502111 429.79543803 366.49545514 431.89543658 365.15220642 434.50793457 C361.9602939 436.63587625 361.07899658 436.76893 357.40538025 436.82678223 C355.964226 436.85658676 355.964226 436.85658676 354.49395752 436.88699341 C353.45949997 436.89854462 352.42504242 436.91009583 351.35923767 436.92199707 C349.7674897 436.9510463 349.7674897 436.9510463 348.14358521 436.98068237 C344.75070764 437.0405129 341.35779622 437.08687778 337.96470642 437.13293457 C335.66586341 437.17111112 333.36703476 437.21016266 331.06822205 437.25012207 C325.42967747 437.34621725 319.79104663 437.43125463 314.15220642 437.50793457 C314.10637011 440.69278219 314.07890944 443.87754349 314.05455017 447.06262207 C314.04145813 447.95682861 314.02836609 448.85103516 314.01487732 449.77233887 C313.93948305 462.93919396 318.14768936 473.11283106 327.25376892 482.72668457 C337.52214953 492.45080473 349.04396146 496.1787279 363.07798767 495.81652832 C375.32991145 495.12744696 385.19512286 488.94419026 393.46470642 480.19543457 C400.35613789 472.02317139 404.3985238 462.51437296 404.40668201 451.75720024 C404.40988849 451.11241606 404.41309497 450.46763188 404.41639861 449.80330878 C404.42467184 447.65193278 404.41878392 445.50083713 404.41290283 443.34945679 C404.41592472 441.78780247 404.41981439 440.22614963 404.4244954 438.6644994 C404.43477888 434.38014745 404.43259271 430.09587916 404.42831481 425.81152034 C404.42584831 421.18845514 404.43486066 416.56541011 404.44235229 411.94235229 C404.45510223 402.88908357 404.45689272 393.83584451 404.45455203 384.78256832 C404.45276948 377.42627148 404.45451715 370.06998366 404.45877647 362.7136879 C404.45937166 361.66699339 404.45996685 360.62029889 404.46058008 359.54188637 C404.46179181 357.41561976 404.46300595 355.28935315 404.46422245 353.16308655 C404.47509858 333.2240023 404.47293482 313.28493497 404.46683761 293.34584977 C404.46166517 275.09464714 404.47293239 256.84349784 404.49193583 238.59230576 C404.51129348 219.85757937 404.51957408 201.12287822 404.51581258 182.38814175 C404.51389779 171.86763893 404.51641529 161.34718153 404.53052711 150.82668686 C404.54241529 141.87332309 404.54387449 132.92003272 404.53173695 123.96666799 C404.52583095 119.39695089 404.52479625 114.82736822 404.53673935 110.25765991 C404.54753932 106.07686894 404.54456552 101.8963256 404.53047767 97.7155465 C404.52781448 96.2008721 404.53024775 94.68617864 404.53821353 93.17152284 C404.54827408 91.1163762 404.53993784 89.06209795 404.52693653 87.00698662 C404.52699155 85.86440545 404.52704656 84.72182428 404.52710325 83.54461944 C403.98373772 79.14332885 402.03149583 76.56402843 399.24717712 73.21984863 C394.25732835 70.459825 389.23445204 71.01907272 383.63267517 71.11730957 C382.41896744 71.12296936 381.2052597 71.12862915 379.95477295 71.13446045 C376.08268098 71.15683015 372.21151818 71.20703075 368.33970642 71.25793457 C365.71276667 71.27799866 363.0858124 71.29624958 360.45884705 71.31262207 C354.02298376 71.35669711 347.58766148 71.42361665 341.15220642 71.50793457 Z M68.96470642 100.50793457 C59.05448853 112.29802885 55.15220642 125.35705689 55.15220642 140.50793457 C62.08220642 140.50793457 69.01220642 140.50793457 76.15220642 140.50793457 C76.23470642 138.89918457 76.31720642 137.29043457 76.40220642 135.63293457 C77.46653863 124.69552068 81.74097091 116.69571764 90.15220642 109.50793457 C99.62621876 103.92594892 108.98907449 102.12792086 119.87876892 103.96887207 C125.32542096 105.40220156 129.2586935 107.6795866 133.55845642 111.30090332 C135.08472551 112.70918285 135.08472551 112.70918285 137.15220642 112.50793457 C137.43193298 113.08930176 137.71165955 113.67066895 137.99986267 114.26965332 C139.09091111 116.47870394 139.09091111 116.47870394 140.33580017 118.33996582 C144.79870005 125.38884506 145.75948093 132.37148562 147.15220642 140.50793457 C153.75220642 140.50793457 160.35220642 140.50793457 167.15220642 140.50793457 C168.00130509 124.79960916 163.00353824 112.16767559 152.90220642 100.32043457 C142.40633545 89.14119303 129.41519983 82.94017625 114.15220642 81.50793457 C96.55275888 81.00378373 81.20574074 88.00442193 68.96470642 100.50793457 Z M97.57408142 125.22668457 C93.65054747 130.54825936 93.15220642 133.50627697 93.15220642 140.50793457 C105.03220642 140.50793457 116.91220642 140.50793457 129.15220642 140.50793457 C129.15220642 132.60338293 128.93697865 130.12754988 124.15220642 124.50793457 C119.34063989 120.75491268 115.50376655 119.12118714 109.33970642 119.23449707 C104.65585785 119.81997814 100.77071913 121.74519796 97.57408142 125.22668457 Z M-63.28919983 172.57043457 C-72.07728581 183.49497253 -74.31931171 194.17109317 -74.14076233 207.95324707 C-74.13651749 209.20427216 -74.13227264 210.45529724 -74.12789917 211.74423218 C-74.11404562 215.03556332 -74.08719564 218.32643539 -74.05378723 221.61761475 C-74.02284178 224.98985235 -74.00934211 228.36215775 -73.99427795 231.73449707 C-73.96134898 238.32581921 -73.91125528 244.91683943 -73.84779358 251.50793457 C-73.01955078 251.86021118 -73.01955078 251.86021118 -72.17457581 252.21960449 C-41.27179941 265.36442748 -10.38479094 278.54504157 20.47761536 291.78436279 C22.6291306 292.70701118 24.78091734 293.62902675 26.93299866 294.550354 C32.0715276 296.75120846 37.20448728 298.96355668 42.32749939 301.20031738 C43.29997116 301.62289825 44.27244293 302.04547913 45.27438354 302.48086548 C47.09922647 303.27429267 48.92223354 304.07196075 50.74304199 304.87460327 C51.54636459 305.22298248 52.34968719 305.57136169 53.17735291 305.93029785 C53.87634201 306.23654083 54.57533112 306.54278381 55.29550171 306.85830688 C57.29630778 307.6730602 57.29630778 307.6730602 60.15220642 307.50793457 C60.22697205 306.89047363 60.30173767 306.2730127 60.37876892 305.63684082 C61.668838 297.32727825 64.84093043 290.73552634 71.65220642 285.57043457 C76.41574942 282.31301178 81.48375577 281.25989983 87.18247986 281.21740723 C88.93525238 281.19826767 88.93525238 281.19826767 90.72343445 281.17874146 C92.5985672 281.17540298 92.5985672 281.17540298 94.51158142 281.17199707 C95.8111377 281.16534027 97.11069397 281.15868347 98.44963074 281.15182495 C101.19655172 281.13988276 103.94334727 281.1361408 106.69029236 281.1373291 C110.18475862 281.13753177 113.67840689 281.11027108 117.1726799 281.07578468 C120.53565691 281.04799326 123.89849141 281.04936175 127.26158142 281.04699707 C128.503573 281.03262604 129.74556458 281.018255 131.02519226 281.00344849 C139.42839911 281.04722638 146.79688472 282.07324998 153.55455017 287.40246582 C158.53606506 293.62619053 161.12181806 299.85493227 163.15220642 307.50793457 C171.78523494 304.85090096 179.93722065 301.19048532 188.15562439 297.47009277 C189.9852215 296.64426286 191.82256706 295.83566833 193.66001892 295.02746582 C195.27867859 294.30200562 195.27867859 294.30200562 196.93003845 293.56188965 C200.56287132 292.37360813 203.35256182 292.17636314 207.15220642 292.50793457 C210.15220642 294.57043457 210.15220642 294.57043457 212.15220642 297.50793457 C212.33970642 301.07043457 212.33970642 301.07043457 211.15220642 304.50793457 C206.36682098 308.28502175 200.96857317 310.48685665 195.37876892 312.83605957 C193.99315262 313.4268631 193.99315262 313.4268631 192.57954407 314.02960205 C189.6478244 315.27809929 186.71260917 316.51812518 183.77720642 317.75793457 C181.78087539 318.60633478 179.78477897 319.45528728 177.78892517 320.30480957 C172.91271651 322.37891857 168.03361535 324.44609645 163.15220642 326.50793457 C163.1376239 327.42494141 163.12304138 328.34194824 163.10801697 329.28674316 C163.04644771 332.73505682 162.97220557 336.1826391 162.88975525 339.63049316 C162.85678945 341.114115 162.82867225 342.59785372 162.80577087 344.08166504 C162.46136358 365.8159639 162.46136358 365.8159639 155.15220642 374.50793457 C149.06067324 379.93422537 143.45039326 382.71872556 135.15367126 382.8302002 C133.41058182 382.85902283 133.41058182 382.85902283 131.63227844 382.88842773 C129.76655685 382.90117737 129.76655685 382.90117737 127.86314392 382.91418457 C126.56833099 382.92558472 125.27351807 382.93698486 123.93946838 382.94873047 C121.20095772 382.96967855 118.46256313 382.98140905 115.72398376 382.98840332 C112.24729471 382.99932676 108.7721906 383.04730494 105.29599571 383.10434723 C101.94341577 383.1510093 98.59103098 383.15452634 95.23814392 383.16418457 C94.00647491 383.18887817 92.77480591 383.21357178 91.5058136 383.23901367 C82.90100467 383.19528043 76.32498331 381.37726911 69.15220642 376.50793457 C61.4091952 368.61570435 60.15936125 360.0318026 59.83580017 349.26184082 C59.81501907 348.60586411 59.79423798 347.94988739 59.77282715 347.27403259 C59.70814704 345.20625911 59.64883176 343.13837356 59.58970642 341.07043457 C59.54644335 339.65701215 59.50282677 338.2436005 59.45884705 336.8302002 C59.35255126 333.38955986 59.2510617 329.94879765 59.15220642 326.50793457 C40.62471055 318.09217802 21.91524008 310.11417101 3.18574524 302.16094971 C-17.03376925 293.57494587 -37.21306294 284.90077246 -57.36732483 276.16271973 C-59.40898956 275.27908895 -61.45065612 274.39546241 -63.49232483 273.51184082 C-64.90074394 272.89954872 -64.90074394 272.89954872 -66.33761597 272.27488708 C-67.61072884 271.72424339 -67.61072884 271.72424339 -68.90956116 271.16247559 C-70.02093193 270.6802932 -70.02093193 270.6802932 -71.15475464 270.18836975 C-72.69832859 269.44578269 -72.69832859 269.44578269 -73.84779358 269.50793457 C-73.94135282 293.94318711 -74.01182959 318.37841268 -74.05504227 342.81380844 C-74.07564251 354.16031645 -74.10371459 365.50671297 -74.14955139 376.85314941 C-74.18949685 386.74598176 -74.21524483 396.63873335 -74.22414756 406.53164411 C-74.22934924 411.76691264 -74.24152215 417.00195018 -74.27071381 422.23714447 C-74.29800474 427.17177162 -74.30621105 432.10607413 -74.3002243 437.04076958 C-74.30131845 438.84503637 -74.30919041 440.64931482 -74.32461548 442.45351601 C-74.45359728 458.32793724 -72.0533526 470.77194371 -60.74623108 482.73059082 C-49.36171024 493.49157783 -37.80714316 495.81584479 -22.64273071 495.7484436 C-21.18475884 495.74931629 -19.72678727 495.75106842 -18.26881737 495.75362194 C-14.27123847 495.75808713 -10.27376705 495.75010318 -6.27620184 495.74006581 C-1.96203789 495.73142168 2.3521201 495.73435216 6.66629028 495.73587036 C14.13796866 495.7369186 21.60961208 495.73064835 29.08128166 495.71939468 C39.8840313 495.70313441 50.68676406 495.69793114 61.48952461 495.6954187 C79.01666185 495.69104243 96.54378046 495.67773515 114.07090759 495.65881348 C131.09597175 495.64045293 148.12103085 495.62629728 165.14610291 495.61779785 C166.19568628 495.6172724 167.24526966 495.61674696 168.3266586 495.61620559 C173.59215721 495.6135955 178.85765585 495.61106808 184.12315452 495.60858178 C227.79951805 495.58785139 271.47586128 495.55262769 315.15220642 495.50793457 C314.74201263 494.96424225 314.33181885 494.42054993 313.90919495 493.86038208 C313.37015533 493.14417694 312.83111572 492.4279718 312.27574158 491.69006348 C311.4748259 490.62702499 311.4748259 490.62702499 310.6577301 489.54251099 C299.62169093 474.62832179 297.55101499 460.21227045 297.60630798 442.2935791 C297.5975552 440.39990395 297.58706354 438.50623618 297.57498169 436.61257935 C297.54730982 431.51433766 297.54371282 426.41633954 297.54470158 421.3180337 C297.54155619 415.9742056 297.51590436 410.63048461 297.49272156 405.28671265 C297.452282 395.18654637 297.43184924 385.08644446 297.41874766 374.98620975 C297.40283669 363.47939597 297.36440391 351.97269109 297.32415438 340.46594071 C297.24192036 316.81330863 297.18772533 293.16067972 297.15220642 269.50793457 C295.09044172 270.29632532 293.02912182 271.08587936 290.96798706 271.87591553 C289.82004134 272.31547199 288.67209562 272.75502846 287.48936367 273.20790482 C283.06243635 274.93246761 278.70032402 276.78639717 274.34361267 278.67980957 C272.59046139 279.43395746 270.83720318 280.18785682 269.08384705 280.94152832 C266.38152136 282.10619193 263.68014372 283.27292748 260.98057556 284.44396973 C258.33326247 285.59100393 255.68249825 286.72972699 253.03111267 287.86730957 C252.22791092 288.21831726 251.42470917 288.56932495 250.59716797 288.93096924 C240.37697572 293.29896366 240.37697572 293.29896366 235.33970642 291.50793457 C233.15220642 289.50793457 233.15220642 289.50793457 232.15220642 286.13293457 C232.15220642 282.0291015 232.7327812 280.74181977 235.15220642 277.50793457 C237.50918579 276.06040955 237.50918579 276.06040955 240.32286072 274.89245605 C241.3779332 274.44526718 242.43300568 273.99807831 243.52005005 273.53733826 C244.66065384 273.07259598 245.80125763 272.6078537 246.97642517 272.12902832 C248.15179337 271.63508072 249.32716156 271.14113312 250.53814697 270.63221741 C253.6623887 269.32208159 256.7915762 268.02558986 259.92424011 266.73583984 C264.31869479 264.92249542 268.70237351 263.08320002 273.08770752 261.24794006 C275.41971923 260.27377685 277.75361387 259.30410527 280.08963013 258.33958435 C285.90015872 255.93016352 291.56928483 253.40756527 297.15220642 250.50793457 C297.20333554 243.89175759 297.23811832 237.27563244 297.2620697 230.65930176 C297.27206532 228.41318864 297.28566631 226.16708832 297.30308533 223.92102051 C297.32761899 220.67391785 297.33875423 217.42698871 297.34751892 214.17980957 C297.35784149 213.19180359 297.36816406 212.20379761 297.37879944 211.18585205 C297.38108068 196.68720947 294.78194289 183.67656355 285.15220642 172.50793457 C284.65076111 171.90078613 284.1493158 171.2936377 283.63267517 170.66809082 C276.60275183 162.8513634 265.96080883 158.05419325 255.50141561 157.32249582 C252.36695959 157.24773248 249.23815527 157.236593 246.10281372 157.24723816 C244.90317515 157.24341261 243.70353658 157.23958706 242.46754533 157.23564559 C239.15471767 157.22713852 235.84211303 157.22753922 232.52929199 157.23182619 C228.94976322 157.23429924 225.37026022 157.22527202 221.79074097 157.2177887 C214.78433063 157.20505534 207.77795865 157.20324634 200.7715387 157.20558896 C195.07435553 157.20737395 189.37718399 157.20561859 183.68000221 157.20136452 C182.86830588 157.20076933 182.05660955 157.20017414 181.22031635 157.19956091 C179.57119367 157.19834913 177.92207098 157.19713499 176.2729483 157.19591854 C160.81551673 157.18504806 145.358107 157.18720305 129.9006742 157.19330338 C115.77275964 157.19847101 101.64491407 157.1872203 87.51701315 157.16820516 C72.99717091 157.14881293 58.47736128 157.14057326 43.957506 157.14432842 C35.81108633 157.1462385 27.66472535 157.14377182 19.51831627 157.12961388 C12.58241215 157.11768137 5.64660284 157.11631604 -1.28930262 157.12840404 C-4.82487282 157.1342799 -8.36026975 157.13542828 -11.89582825 157.12340164 C-15.73645395 157.11048964 -19.57681915 157.12103819 -23.41744995 157.13371277 C-25.07711083 157.12265134 -25.07711083 157.12265134 -26.77030021 157.11136645 C-41.15526844 157.21094119 -53.35987193 161.90295519 -63.28919983 172.57043457 Z M79.15220642 301.50793457 C76.93169547 304.838701 76.89270087 305.93059785 76.86167908 309.81799316 C76.84891937 310.90276947 76.83615967 311.98754578 76.82301331 313.10519409 C76.82078766 314.27708282 76.81856201 315.44897156 76.81626892 316.65637207 C76.80961212 317.86105133 76.80295532 319.06573059 76.7960968 320.30691528 C76.78596368 322.8573046 76.78127998 325.40772046 76.78160095 327.95812988 C76.77723144 331.86059289 76.74092633 335.76192203 76.70298767 339.66418457 C76.697119 342.1407432 76.69314995 344.6173072 76.69126892 347.09387207 C76.67689789 348.26171234 76.66252686 349.42955261 76.64772034 350.63278198 C76.6483349 356.90649383 76.6483349 356.90649383 78.86851501 362.65881348 C82.76984323 365.81774654 86.35617539 366.75658751 91.3221283 366.78259277 C92.32667053 366.79212479 93.33121277 366.8016568 94.36619568 366.81147766 C95.44026672 366.81056625 96.51433777 366.80965485 97.62095642 366.80871582 C98.73402161 366.81300095 99.84708679 366.81728607 100.99388123 366.82170105 C103.34401266 366.82743654 105.69416184 366.82795037 108.04429626 366.8236084 C111.63916764 366.82044604 115.23321784 366.84392663 118.82798767 366.8692627 C121.11314288 366.87153552 123.39830031 366.87223927 125.68345642 366.87121582 C126.75752747 366.88042557 127.83159851 366.88963531 128.93821716 366.89912415 C136.06099043 366.9322873 136.06099043 366.9322873 142.15220642 363.50793457 C145.6915542 359.58937095 146.26955296 356.01243294 146.31333923 350.85046387 C146.32294678 349.93238449 146.33255432 349.01430511 146.342453 348.06840515 C146.34670288 347.08294205 146.35095276 346.09747894 146.35533142 345.08215332 C146.36103149 344.06120071 146.36673157 343.04024811 146.37260437 341.98835754 C146.38204445 339.82895949 146.38858441 337.66954709 146.3924408 335.51013184 C146.40213957 332.21812615 146.43317001 328.92674675 146.46470642 325.6348877 C146.47123761 323.53397993 146.47648762 321.43306772 146.48033142 319.33215332 C146.49885162 317.8630677 146.49885162 317.8630677 146.51774597 316.36430359 C146.49677109 309.88169189 145.82868764 304.85353609 141.65220642 299.63293457 C138.64994452 297.38123815 135.73750548 297.37039745 132.13340759 297.33093262 C131.11192123 297.31809738 130.09043488 297.30526215 129.03799438 297.29203796 C127.38329887 297.28095757 127.38329887 297.28095757 125.69517517 297.26965332 C124.55945572 297.26158157 123.42373627 297.25350983 122.25360107 297.24519348 C119.84864324 297.23135664 117.44366581 297.2206327 115.03868103 297.21276855 C111.36455529 297.19555102 107.6913282 297.15165918 104.0174408 297.10754395 C101.68085887 297.09741734 99.3442693 297.08890114 97.00767517 297.08215332 C95.91061752 297.06464523 94.81355988 297.04713715 93.68325806 297.02909851 C87.52961557 297.04656107 83.78782882 297.30620453 79.15220642 301.50793457 Z " fill="#000000" transform="translate(90.84779357910156,-0.5079345703125)"/>
</svg>
